# xmcd
#
# Track frame offsets: 
#        150
#        35624
#        67480
#        84682
#        102239
#        120762
#        140242
#        164490
#        183592
#        204463
#        240603
#        261587
#        278222
#        307819
#
# Disc length: 4374 seconds
#
# Revision: 2
# Processed by: cddbd v1.5.2PL0 Copyright (c) Steve Scherf et al.
# Submitted via: ExactAudioCopy v0.99pb5
#
DISCID=d511140e
DTITLE=Various Artist - Indestructible African Beats
DYEAR=2005
DGENRE=Tribal
TTITLE0=Arthur Mofokote - Haai Bo
TTITLE1=Ikwunga - Di Bombs
TTITLE2=Tinariwen - Qualahila Ar Tesninam
TTITLE3=Alif - Dakamerap
TTITLE4=Issa Bagayogo - Kalan Nege
TTITLE5=Daara J - Boomerang
TTITLE6=Ba Cissoko - Kounkoure
TTITLE7=Daddy Saj - Corruption
TTITLE8=Mapaputsi - 26_26
TTITLE9=Konono No. 1 - Masikulu
TTITLE10=Adama Yalombo - M'bora
TTITLE11=Manou Gallo - Iniyi
TTITLE12=Salif Keita - Madan (Gekko Remix)
TTITLE13=H2O - It's Wonderful
EXTD=
EXTT0=
EXTT1=
EXTT2=
EXTT3=
EXTT4=
EXTT5=
EXTT6=
EXTT7=
EXTT8=
EXTT9=
EXTT10=
EXTT11=
EXTT12=
EXTT13=
PLAYORDER=
